<svg width="104" height="104" viewBox="0 0 104 104" fill="none" xmlns="http://www.w3.org/2000/svg">
<circle cx="6.35744" cy="6.35744" r="6.35744" fill="white" fill-opacity="0.2"/>
<circle cx="29.0723" cy="6.35744" r="6.35744" fill="white" fill-opacity="0.2"/>
<circle cx="51.7871" cy="6.35744" r="6.35744" fill="white" fill-opacity="0.2"/>
<circle cx="74.502" cy="6.35744" r="6.35744" fill="white" fill-opacity="0.2"/>
<circle cx="97.2168" cy="6.35744" r="6.35744" fill="white" fill-opacity="0.2"/>
<circle cx="6.35744" cy="29.0723" r="6.35744" fill="white" fill-opacity="0.2"/>
<circle cx="29.0723" cy="29.0723" r="6.35744" fill="white" fill-opacity="0.2"/>
<circle cx="51.7871" cy="29.0723" r="6.35744" fill="white" fill-opacity="0.2"/>
<circle cx="74.502" cy="29.0723" r="6.35744" fill="white" fill-opacity="0.2"/>
<circle cx="97.2168" cy="29.0723" r="6.35744" fill="white" fill-opacity="0.2"/>
<circle cx="6.35744" cy="51.7871" r="6.35744" fill="white" fill-opacity="0.2"/>
<circle cx="29.0723" cy="51.7871" r="6.35744" fill="white" fill-opacity="0.2"/>
<circle cx="51.7871" cy="51.7871" r="6.35744" fill="white" fill-opacity="0.2"/>
<circle cx="74.502" cy="51.7871" r="6.35744" fill="white" fill-opacity="0.2"/>
<circle cx="97.2168" cy="51.7871" r="6.35744" fill="white" fill-opacity="0.2"/>
<circle cx="6.35744" cy="74.502" r="6.35744" fill="white" fill-opacity="0.2"/>
<circle cx="29.0723" cy="74.502" r="6.35744" fill="white" fill-opacity="0.2"/>
<circle cx="51.7871" cy="74.502" r="6.35744" fill="white" fill-opacity="0.2"/>
<circle cx="74.502" cy="74.502" r="6.35744" fill="white" fill-opacity="0.2"/>
<circle cx="97.2168" cy="74.502" r="6.35744" fill="white" fill-opacity="0.2"/>
<circle cx="6.35744" cy="97.2168" r="6.35744" fill="white" fill-opacity="0.2"/>
<circle cx="29.0723" cy="97.2168" r="6.35744" fill="white" fill-opacity="0.2"/>
<circle cx="51.7871" cy="97.2168" r="6.35744" fill="white" fill-opacity="0.2"/>
<circle cx="74.502" cy="97.2168" r="6.35744" fill="white" fill-opacity="0.2"/>
<circle cx="97.2168" cy="97.2168" r="6.35744" fill="white" fill-opacity="0.2"/>
</svg>
