<svg width="1440" height="170" viewBox="0 0 1440 170" fill="none" xmlns="http://www.w3.org/2000/svg">
<path fill-rule="evenodd" clip-rule="evenodd" d="M494.32 170.193L494 210.858H965L964.68 149.536L960.999 149.048L960.839 146.933L957.958 146.445L944.515 146.77L944.355 149.373L940.674 149.21V163.199L935.232 162.874L935.072 142.379L933.472 140.427L933.312 98.9487L930.271 97.3222L930.111 94.069L927.23 93.7436L927.07 86.5867L925.79 85.9361V82.8455L924.19 82.0322L922.269 82.1949L922.109 86.0987L920.989 86.2614V94.069H918.588V95.3702L916.188 95.5329V98.7861H914.587V128.878H909.466V99.4367L907.545 98.7861V96.1835L905.465 95.5329V94.7196L903.864 94.069H903.224L903.064 86.912L902.104 86.424L901.944 83.1708L900.184 82.3575H898.103V86.0987L896.983 86.2614V94.069H894.422L894.102 98.9487L891.221 99.1114V116.679L890.421 117.004L890.581 139.613L889.301 139.776L888.821 133.27H884.339L884.179 140.427L882.579 140.752L882.739 142.867L881.459 143.029V168.241H878.258L877.298 132.619L874.097 132.456L873.937 123.836L870.896 123.673L870.736 119.281C870.736 119.281 869.616 117.98 866.895 117.167C864.174 116.353 860.013 116.516 859.693 116.841C859.533 117.167 859.693 121.721 859.693 121.721L856.492 122.046L856.332 128.553L849.771 128.715V127.577H841.289L841.128 162.711L838.408 162.874L838.088 166.127L835.207 166.289L835.047 112.124L827.525 110.497L806.88 111.311V117.654L806.24 117.98V147.909L799.838 148.072V152.301L797.117 152.463V159.132L796.477 159.458V183.857L791.036 183.694L790.556 141.24L770.711 140.915L770.55 145.632L763.989 145.794L763.829 144.168L736.622 144.005L734.381 144.493L734.541 166.452H731.821L731.661 170.031L728.94 169.868V131.806L726.699 131.643V130.83H724.779C724.779 130.83 725.259 118.305 723.819 115.215C722.378 112.124 717.737 108.383 713.256 105.78C708.775 103.178 706.374 100.25 704.614 96.6715C702.693 93.093 703.173 85.4481 703.173 85.4481C703.173 85.4481 703.013 84.7974 702.853 84.6348C702.693 84.4721 702.533 84.4721 702.533 84.4721L702.853 160.759H698.212L697.732 148.397L695.491 147.909V144.818L692.771 144.493L692.611 141.077L683.648 129.366V127.902L683.328 127.577L683.168 123.348L683.328 123.185C683.328 123.185 683.328 122.534 683.328 122.372C683.328 122.209 683.008 122.209 683.008 122.209L682.848 121.07L682.688 116.191H682.528V121.07L682.368 122.209C682.368 122.209 682.048 122.209 681.888 122.372C681.888 122.372 681.728 122.534 681.728 122.697L681.888 123.185V127.739L681.408 127.902V129.041L679.327 132.131V123.998L677.567 123.836V118.956C677.567 118.956 677.887 118.793 677.887 118.468C677.887 118.142 677.407 117.98 677.247 117.492C677.087 117.004 675.646 115.703 675.646 115.703C675.646 115.703 675.646 114.727 675.486 114.401C675.486 114.239 673.566 113.913 673.566 113.913L673.406 112.124C673.406 112.124 673.886 111.799 673.886 111.636C673.886 111.473 672.926 111.473 672.926 111.473C672.926 111.473 672.766 110.01 671.165 107.407C669.565 104.642 667.964 104.804 667.964 104.804V103.503L667.004 102.365C666.844 102.365 666.204 103.503 666.204 103.503L666.044 104.804C666.044 104.804 664.123 105.78 662.683 107.895C661.243 110.01 661.083 111.636 661.083 111.636C661.083 111.636 659.962 111.636 659.802 111.799C659.642 111.961 660.282 112.124 660.282 112.124V113.751L656.281 114.239C656.281 114.239 655.001 114.239 655.001 114.401C655.001 114.564 655.481 114.889 655.481 114.889V117.004L654.201 117.167V118.142C654.201 118.142 653.721 118.142 653.561 118.142C653.561 118.142 653.561 118.305 653.401 118.305C653.401 118.468 653.721 118.956 653.721 118.956L653.881 124.486H653.401C653.401 124.486 653.081 124.486 653.081 124.649C653.081 124.811 653.721 125.299 653.721 125.299L653.881 130.993C653.881 130.993 653.241 130.992 653.241 131.155C653.241 131.318 653.881 131.806 653.881 131.806L654.041 162.386L653.721 164.012L652.76 165.476H649.4L648.599 143.029L647.639 142.704L647.319 139.451L646.679 139.125L646.519 135.222L640.437 131.48L638.037 131.318V129.203L634.036 128.878L633.716 120.42L626.514 120.094V116.353L625.233 115.865L618.352 116.028L618.192 116.841H611.15L610.99 119.118L606.669 119.281V118.793H601.227V120.745H597.546L597.386 119.769H590.665V122.534L589.224 122.697L589.064 138.963L572.42 139.613L572.26 135.222H567.139L566.979 132.131L522.807 132.294L522.647 135.71L521.367 135.872L521.207 152.951L508.884 153.277L508.404 170.844H494.32V170.193Z" fill="#2F2F2F" fill-opacity="0.15"/>
<path fill-rule="evenodd" clip-rule="evenodd" d="M1007.39 184.981C1007.55 184.326 1007.55 175.482 1007.55 175.482L1012.18 175.154L1012.5 151.406L1014.89 151.242V148.131H1025.27V151.57L1028.3 152.389L1028.46 175.154L1032.77 175.318L1032.93 170.896L1034.53 170.732L1034.85 159.104L1046.5 158.776H1048.26L1047.94 124.383L1052.25 123.564L1052.57 117.34L1058.79 116.521L1063.9 117.504L1064.38 120.616L1067.25 120.452L1067.89 119.797L1073.64 120.452V123.728L1078.75 124.71L1078.91 126.184L1082.26 127.003L1082.42 128.15L1085.29 128.477V95.7214L1090.88 95.3938L1091.36 93.9198L1092.96 93.756L1101.73 95.23H1106.84L1116.9 97.8505L1117.06 100.143L1122.81 101.454L1122.49 127.167L1124.24 127.822L1124.4 137.649L1129.51 138.631L1130.79 176.137L1133.34 176.464V178.102L1141.01 177.938L1142.28 175.154H1145.63L1145.79 167.457L1147.07 167.293L1147.23 161.888L1156.01 161.397L1156.33 111.608L1163.35 104.729L1163.67 97.3592L1179.96 95.5576L1182.03 96.5403L1191.77 110.625L1192.09 128.805L1193.37 128.641L1198.15 129.787V132.572L1213 135.683V138.304L1214.44 138.631L1214.6 29.2271L1215.55 28.4082L1220.34 28.572C1220.34 28.572 1222.1 23.8224 1222.1 23.6587C1222.1 23.4949 1221.94 3.18631 1221.94 3.18631L1222.9 0.565834L1223.38 0.238281V46.0964L1224.01 46.7515V52.8113L1229.28 53.1389L1229.6 57.5609C1229.6 57.5609 1232.95 57.0695 1234.71 57.0695C1236.63 57.0695 1241.41 58.7073 1241.41 58.7073V69.5168L1246.04 69.353H1253.23L1255.3 70.3356L1255.62 95.5576L1257.06 95.3938C1257.06 95.3938 1256.42 93.4285 1257.22 93.1009C1258.18 92.7734 1260.57 92.6096 1260.57 92.6096C1260.57 92.6096 1260.25 70.4994 1260.73 70.1719C1261.05 69.8443 1261.37 69.8443 1261.69 69.8443C1262.01 69.8443 1262.17 70.3356 1262.17 70.3356L1262.33 92.4458C1262.33 92.4458 1265.2 92.6096 1265.68 93.2647C1266.32 93.9198 1266.16 94.9025 1266.16 94.9025C1266.16 94.9025 1268.71 95.3938 1269.03 96.0489C1269.35 96.704 1269.35 97.8505 1269.35 97.8505C1269.35 97.8505 1272.22 98.1781 1272.38 98.997C1272.7 99.8158 1272.7 106.858 1272.7 106.858L1281.64 110.134L1281.16 146.329L1292.34 145.674L1301.12 147.967L1301.44 181.05H1302.87L1302.71 164.181L1307.82 162.707L1307.66 157.466H1316.28L1316.6 162.707L1324.58 163.362V165.983L1327.3 164.181L1336.24 169.258L1336.4 178.43L1345.82 178.102V172.697C1345.82 172.697 1349.33 171.715 1350.76 171.715C1352.2 171.715 1358.59 171.879 1358.59 171.879L1358.43 155.992C1358.43 155.992 1357.31 154.354 1357.47 154.027C1357.63 153.699 1364.49 149.605 1364.49 149.605L1364.65 134.373L1371.04 132.408L1390.83 133.391L1391.15 176.464L1392.75 176.301L1397.06 172.861L1401.37 175.645L1413.5 175.318L1413.34 172.37C1413.34 172.37 1411.59 172.37 1411.74 172.206C1411.9 172.042 1413.66 170.568 1413.66 170.568L1416.53 156.811L1419.41 168.275L1425.15 144.527L1426.11 144.364L1432.5 167.784L1433.3 167.62L1435.53 157.302L1438.56 170.077L1440 171.715L1438.72 173.516L1439.04 210.858H965V195.522V181.208L1007.39 184.981Z" fill="#2F2F2F" fill-opacity="0.15"/>
<path fill-rule="evenodd" clip-rule="evenodd" d="M286.34 116.152L285.861 167.601L264.451 167.274L264.292 157.606L258.22 154.166L251.67 157.115L251.829 159.081L251.35 167.274L243.042 167.929L240.166 169.404V161.867L233.456 161.539L231.858 162.358L230.26 159.409L230.42 127.949C230.42 127.949 230.74 125.328 230.42 124.836C230.26 124.345 225.467 122.215 225.148 122.378C224.828 122.542 220.195 124.181 220.195 124.181C220.195 124.181 219.716 124.836 219.556 125.492C219.396 126.147 220.035 127.949 220.195 128.277C220.195 128.605 220.035 160.72 220.035 160.72L216.84 165.963V148.267L210.768 142.368L210.609 129.588L209.65 129.424L209.33 117.954H208.532L208.372 129.752L203.259 133.684L201.342 134.667L201.022 131.718C201.022 131.718 193.993 131.226 193.513 131.063C193.034 130.899 188.081 133.684 188.081 133.684L187.921 138.436C187.921 138.436 187.761 138.436 186.963 137.944C186.164 137.453 184.886 137.617 184.886 137.617L184.726 136.797C184.726 136.797 185.045 136.306 185.045 135.65C184.886 134.831 184.726 134.831 184.726 134.831L184.886 133.356C184.886 133.356 185.205 132.21 185.045 131.718C184.886 131.226 184.406 131.063 184.406 131.063V125.983H183.607L183.448 131.063C183.448 131.063 182.809 131.39 182.649 131.882C182.489 132.537 182.968 133.029 182.968 133.029V134.34C182.968 134.34 182.489 134.667 182.489 135.323C182.489 135.978 182.968 136.47 182.968 136.47V137.78C182.968 137.78 181.211 138.108 180.412 138.6C179.613 139.091 178.335 140.73 178.335 140.73C178.335 140.73 174.98 141.385 174.82 141.713C174.66 142.041 175.459 143.024 175.459 143.024H171.944L171.625 145.318L168.269 145.481L167.95 161.211H165.873L165.553 154.657L164.115 154.493L163.956 149.25L151.174 149.086L149.417 149.905V192.834L143.026 192.343L140.789 189.557L137.594 189.066L132.96 181.529C132.96 181.529 133.12 179.89 132.641 179.071C132.161 178.252 131.203 178.252 131.203 178.252L125.451 168.257C125.451 168.257 125.771 167.929 126.41 166.946C127.049 165.963 129.605 160.392 128.487 154.657C127.368 149.086 123.853 149.742 123.853 149.742V93.7046C123.853 93.7046 125.771 92.8853 127.208 90.0998C128.487 87.1505 128.806 82.235 127.208 79.2857C125.611 76.3364 122.415 75.1894 122.415 75.1894L122.256 71.0931C122.256 71.0931 122.895 70.11 122.895 69.1269C122.895 68.1438 122.415 67.98 122.415 67.98L122.256 59.132C122.256 59.132 124.013 56.8381 123.694 55.1996C123.374 53.5611 122.735 53.0696 122.735 53.0696V52.7419C122.735 52.7419 123.374 51.7588 123.214 51.2672C123.054 50.7756 122.096 50.2841 122.096 50.2841L121.936 41.9277C121.936 41.9277 121.936 41.9277 122.096 41.7639C122.256 41.6 122.575 40.9446 122.415 40.453C122.256 39.9615 121.776 39.4699 121.776 39.4699V39.3061V29.1473C121.776 29.1473 121.936 28.9835 121.936 28.8196C122.096 28.6558 122.256 27.8365 122.096 27.5088C122.096 27.1811 121.457 26.8534 121.457 26.8534L121.137 6.37207H120.338L120.019 27.0173C120.019 27.0173 119.539 27.1811 119.38 27.6727C119.22 28.1642 119.859 28.8196 119.859 28.8196V39.6338C119.859 39.6338 119.22 39.9615 118.9 40.453C118.741 41.1084 119.06 41.6 119.22 41.7639C119.38 41.9277 119.22 50.6118 119.22 50.6118C119.22 50.6118 118.581 50.7756 118.102 51.5949C117.622 52.4142 118.102 52.4142 118.421 52.7419C118.741 53.0696 118.421 53.3973 118.421 53.3973C118.421 53.3973 118.261 53.5611 117.782 54.2165C117.303 54.8719 117.143 55.6912 117.303 56.8381C117.622 57.9851 118.421 59.132 118.421 59.132V68.3077C118.421 68.3077 118.102 68.4715 117.782 68.7992C117.462 69.2908 117.462 69.2908 117.462 69.9462C117.462 70.6016 117.942 70.7654 117.942 70.7654V75.3533C117.942 75.3533 114.427 76.9918 113.149 78.958C111.87 80.9242 110.273 83.382 111.391 87.4782C112.669 91.5745 114.587 92.3938 114.587 92.3938L114.427 150.397C114.427 150.397 112.829 151.052 111.711 152.855C110.592 154.657 109.474 156.951 109.793 159.9C110.113 162.85 110.912 164.816 110.912 164.816L103.882 164.98L103.562 192.179L95.5739 192.015L95.7337 180.546H91.1003L90.9406 181.529H88.7038L88.544 191.196H83.9107L83.2716 177.76L73.0463 173.828L68.0934 173.664C68.0934 173.664 66.0164 170.878 62.821 169.404C59.6256 167.929 57.0692 168.421 57.0692 168.421L57.3888 163.341L55.9508 161.375L55.7911 155.64L54.9922 155.149L54.8324 151.544L50.8382 147.939L50.5186 140.402L50.0393 140.73L49.8796 144.334L49.7198 144.99V147.775L45.7255 151.708V155.149L44.9267 155.64L44.7669 162.194L44.1278 162.85V171.534L38.8554 174.483L33.9025 175.63C33.9025 175.63 33.7428 177.268 33.7428 177.596C33.7428 177.924 34.0623 178.252 34.0623 178.252C34.0623 178.252 34.0623 178.743 34.0623 179.071C34.0623 179.235 34.7014 180.054 34.7014 180.054C34.7014 180.054 34.8611 193.326 34.8611 194.145L30.3876 193.654L29.5887 192.834C29.5887 192.834 25.7542 192.507 24.4761 193.162L20.4818 192.834C20.4818 192.834 18.8841 189.393 16.9669 188.246C15.0496 187.1 8.81856 187.263 8.81856 187.263C8.81856 187.263 2.74728 187.919 0.98981 189.066C-0.767665 190.049 0.350728 196.603 0.350728 196.603V210.858H495V196.603V195.456V162.194L489.248 161.539L487.81 160.556L485.574 160.72L485.254 164.488L482.218 164.652L480.78 165.963L480.621 154.985L478.863 153.019L473.591 153.182L473.431 155.804L470.395 156.132L470.555 157.443L468.638 157.77L468.478 160.883L465.283 161.211L465.442 173.5L462.567 173.172V147.284L458.093 146.465L453.14 147.12L452.182 152.035L449.945 152.363L450.264 157.934H447.868C447.868 157.934 447.229 171.698 447.388 172.025C447.548 172.353 446.43 173.008 446.43 173.008L442.755 172.189L442.435 144.498L436.045 140.894L423.583 140.402L423.423 118.446L411.6 114.186L396.262 116.48L396.422 108.779C396.422 108.779 392.268 107.304 384.439 107.796C376.61 108.123 371.338 108.615 371.338 108.615L371.018 188.902L367.024 188.41L366.545 181.365L364.627 177.76L364.947 96.9816L360.473 94.6877L351.846 96.3262L348.65 97.3093L348.97 125.655L346.733 125.328L346.414 98.1285L344.976 97.8008C344.976 97.8008 344.656 95.8346 343.857 94.1961C343.058 92.5576 340.662 91.2468 340.662 91.2468C340.662 91.2468 340.182 87.4782 340.023 86.8228C339.863 86.1674 339.384 85.8397 339.384 85.8397L338.904 76.9918L338.425 85.8397C338.425 85.8397 337.946 86.4951 337.786 86.9867C337.626 87.3144 337.466 91.2468 337.466 91.2468C337.466 91.2468 335.709 92.2299 334.59 93.5407C333.312 94.8515 333.312 97.4731 333.312 97.4731L331.715 98.1285L331.235 116.48L330.916 125C330.916 125 327.401 126.966 327.081 126.966C326.762 127.13 326.922 138.272 326.922 138.272C326.922 138.272 320.531 135.487 318.134 135.65C315.897 135.814 312.702 136.47 312.702 136.47L312.862 120.904C312.862 120.904 301.358 124.509 301.039 124.509C300.08 124.836 286.34 116.152 286.34 116.152ZM120.019 94.5238L120.179 99.4393H117.942V94.6877V94.0323L120.019 94.5238ZM119.859 105.174V109.27H117.622V104.519V103.863L119.859 105.174ZM119.539 114.35V118.446H117.303V113.694V113.039L119.539 114.35ZM119.699 123.525V127.622H117.462V122.706V122.051L119.699 123.525ZM119.859 133.193V137.289H117.622V132.537V131.882L119.859 133.193ZM119.699 142.696V146.792C119.699 146.792 117.782 146.792 117.622 146.792C117.462 146.792 117.462 142.041 117.462 142.041V141.385L119.699 142.696ZM131.043 183.003L134.238 189.393C134.238 189.393 130.084 190.54 129.925 190.868C129.925 191.196 123.374 191.196 123.374 191.196L123.214 189.066C123.214 189.066 129.605 182.839 129.925 182.512L130.084 182.348C130.084 182.348 130.084 182.348 130.404 182.512C130.564 182.839 131.043 183.003 131.043 183.003ZM129.126 179.89V181.037L123.534 186.608L123.214 170.551V169.567L129.126 179.89Z" fill="#2F2F2F" fill-opacity="0.15"/>
</svg>
