<svg width="24" height="24" viewBox="0 0 24 24" fill="none" xmlns="http://www.w3.org/2000/svg">
<path d="M1.5 17.2893C1.9026 16.8772 2.42977 16.6091 3 16.5266V3.03748C2.57675 3.12445 2.19643 3.35471 1.92319 3.68944C1.64994 4.02417 1.50048 4.44288 1.5 4.87498V17.2893Z" fill="#4F4F4F"/>
<path d="M18.7501 10.0912V8.25H16.9088C16.9874 8.70974 17.2067 9.13376 17.5365 9.46356C17.8663 9.79336 18.2903 10.0127 18.7501 10.0912Z" fill="#4F4F4F"/>
<path d="M22.5 4.87498C22.4995 4.44288 22.3501 4.02417 22.0768 3.68944C21.8036 3.35471 21.4233 3.12445 21 3.03748V16.5262C21.5702 16.6087 22.0974 16.8768 22.5 17.289V4.87498Z" fill="#4F4F4F"/>
<path d="M3.29625 21H20.7038C21.1798 20.999 21.6361 20.8094 21.9728 20.4728C22.3094 20.1361 22.499 19.6798 22.5 19.2037V19.125C22.4994 18.6279 22.3017 18.1513 21.9502 17.7998C21.5987 17.4483 21.1221 17.2506 20.625 17.25C20.5255 17.25 20.4302 17.2105 20.3598 17.1402C20.2895 17.0698 20.25 16.9745 20.25 16.875V5.25H3.75V16.875C3.75 16.9745 3.71049 17.0698 3.64016 17.1402C3.56984 17.2105 3.47446 17.25 3.375 17.25C2.8779 17.2506 2.40133 17.4483 2.04983 17.7998C1.69833 18.1513 1.5006 18.6279 1.5 19.125V19.2023C1.50059 19.6786 1.68998 20.1353 2.02668 20.4723C2.36337 20.8092 2.8199 20.999 3.29625 21ZM4.5 10.875C4.5 10.7755 4.53951 10.6802 4.60984 10.6098C4.68016 10.5395 4.77554 10.5 4.875 10.5H7.875V7.875C7.875 7.77554 7.91451 7.68016 7.98483 7.60983C8.05516 7.53951 8.15054 7.5 8.25 7.5H19.125C19.2245 7.5 19.3198 7.53951 19.3902 7.60983C19.4605 7.68016 19.5 7.77554 19.5 7.875V18.375C19.5 18.4745 19.4605 18.5698 19.3902 18.6402C19.3198 18.7105 19.2245 18.75 19.125 18.75H15.75C15.6505 18.75 15.5552 18.7105 15.4848 18.6402C15.4145 18.5698 15.375 18.4745 15.375 18.375C15.375 18.2755 15.4145 18.1802 15.4848 18.1098C15.5552 18.0395 15.6505 18 15.75 18H18.75V10.8491C18.0901 10.765 17.4767 10.4641 17.0063 9.99368C16.5359 9.52325 16.235 8.90994 16.1509 8.25H14.25V11.25C14.25 11.3495 14.2105 11.4448 14.1402 11.5152C14.0698 11.5855 13.9745 11.625 13.875 11.625C13.7755 11.625 13.6802 11.5855 13.6098 11.5152C13.5395 11.4448 13.5 11.3495 13.5 11.25V8.25H8.625V10.875C8.625 10.9745 8.58549 11.0698 8.51517 11.1402C8.44484 11.2105 8.34946 11.25 8.25 11.25H5.25V14.25H8.25C8.34946 14.25 8.44484 14.2895 8.51517 14.3598C8.58549 14.4302 8.625 14.5255 8.625 14.625C8.625 14.7245 8.58549 14.8198 8.51517 14.8902C8.44484 14.9605 8.34946 15 8.25 15H5.25V18H9.75V16.5C9.75 16.4005 9.78951 16.3052 9.85983 16.2348C9.93016 16.1645 10.0255 16.125 10.125 16.125C10.2245 16.125 10.3198 16.1645 10.3902 16.2348C10.4605 16.3052 10.5 16.4005 10.5 16.5V18H13.5V13.5H10.5V15C10.5 15.0995 10.4605 15.1948 10.3902 15.2652C10.3198 15.3355 10.2245 15.375 10.125 15.375C10.0255 15.375 9.93016 15.3355 9.85983 15.2652C9.78951 15.1948 9.75 15.0995 9.75 15V13.125C9.75 13.0255 9.78951 12.9302 9.85983 12.8598C9.93016 12.7895 10.0255 12.75 10.125 12.75H16.875C16.9745 12.75 17.0698 12.7895 17.1402 12.8598C17.2105 12.9302 17.25 13.0255 17.25 13.125C17.25 13.2245 17.2105 13.3198 17.1402 13.3902C17.0698 13.4605 16.9745 13.5 16.875 13.5H14.25V18.375C14.25 18.4745 14.2105 18.5698 14.1402 18.6402C14.0698 18.7105 13.9745 18.75 13.875 18.75H4.875C4.77554 18.75 4.68016 18.7105 4.60984 18.6402C4.53951 18.5698 4.5 18.4745 4.5 18.375V10.875Z" fill="#4F4F4F"/>
</svg>
