<svg width="172" height="172" viewBox="0 0 172 172" fill="none" xmlns="http://www.w3.org/2000/svg">
<circle cx="6" cy="6" r="6" fill="#EEEEEE"/>
<circle cx="38" cy="6" r="6" fill="#EEEEEE"/>
<circle cx="70" cy="6" r="6" fill="#EEEEEE"/>
<circle cx="102" cy="6" r="6" fill="#EEEEEE"/>
<circle cx="134" cy="6" r="6" fill="#EEEEEE"/>
<circle cx="166" cy="6" r="6" fill="#EEEEEE"/>
<circle cx="6" cy="38" r="6" fill="#EEEEEE"/>
<circle cx="38" cy="38" r="6" fill="#EEEEEE"/>
<circle cx="70" cy="38" r="6" fill="#EEEEEE"/>
<circle cx="102" cy="38" r="6" fill="#EEEEEE"/>
<circle cx="134" cy="38" r="6" fill="#EEEEEE"/>
<circle cx="166" cy="38" r="6" fill="#EEEEEE"/>
<circle cx="6" cy="70" r="6" fill="#EEEEEE"/>
<circle cx="38" cy="70" r="6" fill="#EEEEEE"/>
<circle cx="70" cy="70" r="6" fill="#EEEEEE"/>
<circle cx="102" cy="70" r="6" fill="#EEEEEE"/>
<circle cx="134" cy="70" r="6" fill="#EEEEEE"/>
<circle cx="166" cy="70" r="6" fill="#EEEEEE"/>
<circle cx="6" cy="102" r="6" fill="#EEEEEE"/>
<circle cx="38" cy="102" r="6" fill="#EEEEEE"/>
<circle cx="70" cy="102" r="6" fill="#EEEEEE"/>
<circle cx="102" cy="102" r="6" fill="#EEEEEE"/>
<circle cx="134" cy="102" r="6" fill="#EEEEEE"/>
<circle cx="166" cy="102" r="6" fill="#EEEEEE"/>
<circle cx="6" cy="134" r="6" fill="#EEEEEE"/>
<circle cx="38" cy="134" r="6" fill="#EEEEEE"/>
<circle cx="70" cy="134" r="6" fill="#EEEEEE"/>
<circle cx="102" cy="134" r="6" fill="#EEEEEE"/>
<circle cx="134" cy="134" r="6" fill="#EEEEEE"/>
<circle cx="166" cy="134" r="6" fill="#EEEEEE"/>
<circle cx="6" cy="166" r="6" fill="#EEEEEE"/>
<circle cx="38" cy="166" r="6" fill="#EEEEEE"/>
<circle cx="70" cy="166" r="6" fill="#EEEEEE"/>
<circle cx="102" cy="166" r="6" fill="#EEEEEE"/>
<circle cx="134" cy="166" r="6" fill="#EEEEEE"/>
<circle cx="166" cy="166" r="6" fill="#EEEEEE"/>
</svg>
